<svg width="128" height="56" viewBox="0 0 128 56" fill="none" xmlns="http://www.w3.org/2000/svg">
<path d="M29.1318 17.6318H26.653V14.6344H29.1318V17.6318Z" fill="#008F3D"/>
<path d="M26.0307 14.0171V11.0454C24.5205 11.3008 23.469 13.2832 23.469 13.2832V14.0171H26.0307Z" fill="#008F3D"/>
<path d="M26.653 14.0171H29.1318V13.2832C28.2622 11.7881 27.4152 11.1702 26.653 11.0449V14.0171Z" fill="#008F3D"/>
<path d="M26.0307 17.6318H23.469V14.6344H26.0307V17.6318Z" fill="#008F3D"/>
<path fill-rule="evenodd" clip-rule="evenodd" d="M94.0148 21.4211C94.4638 21.097 94.688 20.575 94.688 19.8537V13.3728C94.688 12.651 94.4638 12.1218 94.0148 11.7846C93.5017 11.4149 92.6285 11.2287 91.3866 11.2287C89.0616 11.2287 87.9014 11.9436 87.9014 13.3728V19.8537C87.9014 21.2678 89.0616 21.9747 91.3866 21.9747C92.6285 21.9747 93.5017 21.7901 94.0148 21.4211ZM92.2941 13.1195V20.0846C92.2941 20.4691 91.9609 20.6609 91.2938 20.6609C90.6426 20.6609 90.3177 20.4691 90.3177 20.0846V13.1195C90.3177 12.7351 90.6426 12.5433 91.2938 12.5433C91.9609 12.5433 92.2941 12.7351 92.2941 13.1195Z" fill="#008F3D"/>
<path d="M78.6586 21.5363C78.922 21.2794 79.0517 20.9633 79.0517 20.5858C79.0517 20.2106 78.922 19.8951 78.6586 19.6351C78.3968 19.3769 78.0722 19.2486 77.6905 19.2486C77.3097 19.2486 76.9864 19.3769 76.7233 19.6351C76.4596 19.8951 76.33 20.2106 76.33 20.5858C76.33 20.9633 76.4596 21.2794 76.7233 21.5363C76.9864 21.7965 77.3097 21.9246 77.6905 21.9246C78.0722 21.9246 78.3968 21.7965 78.6586 21.5363Z" fill="#008F3D"/>
<path d="M86.9962 19.8771C86.9962 20.4688 86.7597 20.9484 86.285 21.3213C85.7486 21.725 84.9724 21.9246 83.959 21.9246C82.8213 21.9246 81.9992 21.7088 81.4931 21.2742C80.9233 20.7787 80.6386 19.9172 80.6386 18.6903V14.43C80.6386 13.2052 80.9233 12.3355 81.4931 11.8212C81.9992 11.3884 82.8213 11.1688 83.959 11.1688C84.9724 11.1688 85.7486 11.3802 86.285 11.798C86.7597 12.157 86.9962 12.6286 86.9962 13.2201V14.6612H84.8371V13.2201C84.8371 13.0339 84.7533 12.8634 84.5902 12.7063C84.4225 12.5528 84.1972 12.4741 83.9133 12.4741C83.3106 12.4741 83.0114 12.7145 83.0114 13.1952V19.9013C83.0114 20.3822 83.3106 20.6213 83.9133 20.6213C84.1972 20.6213 84.4225 20.5462 84.5902 20.3896C84.7533 20.2335 84.8371 20.063 84.8371 19.8771V18.4342H86.9962V19.8771Z" fill="#008F3D"/>
<path d="M104.811 21.9246H106.988V12.8845C106.988 12.1665 106.683 11.6875 106.07 11.454C105.71 11.3123 105.137 11.2405 104.352 11.2405C103.723 11.2405 103.253 11.3431 102.937 11.5468L102.608 11.8045C102.249 11.4293 101.489 11.2405 100.325 11.2405C99.7001 11.2405 99.2267 11.3431 98.9146 11.5468V11.4056H96.5937V21.9246H98.9146V12.6492H100.201C100.574 12.6492 100.761 12.8861 100.761 13.3564V21.9246H102.937V12.6492H104.242C104.619 12.6492 104.811 12.8861 104.811 13.3564V21.9246Z" fill="#008F3D"/>
<path d="M111.368 20.5858C111.368 20.9633 111.234 21.2794 110.973 21.5363C110.709 21.7965 110.388 21.9246 110.005 21.9246C109.624 21.9246 109.303 21.7965 109.04 21.5363C108.776 21.2794 108.646 20.9633 108.646 20.5858C108.646 20.2106 108.776 19.8951 109.04 19.6351C109.303 19.3769 109.624 19.2486 110.005 19.2486C110.388 19.2486 110.709 19.3769 110.973 19.6351C111.234 19.8951 111.368 20.2106 111.368 20.5858Z" fill="#008F3D"/>
<path d="M118.195 11.4056L115.734 18.7076L113.202 11.4056H111.046L114.574 21.9246H116.893L120.422 11.4056H118.195Z" fill="#008F3D"/>
<path d="M127.997 21.9246H125.82V13.3564C125.82 12.8861 125.633 12.6492 125.258 12.6492H123.971V21.9246H121.653V11.4056H123.971V11.5468C124.284 11.3431 124.753 11.2405 125.377 11.2405C126.156 11.2405 126.725 11.3123 127.085 11.454C127.694 11.6875 127.997 12.1665 127.997 12.8845V21.9246Z" fill="#008F3D"/>
<path d="M127.46 53.5676C127.472 53.6116 127.506 53.6402 127.556 53.6615C128.023 54.1487 127.705 54.5498 125.358 54.54C125.358 54.54 74.2967 46.2686 8.62655 55.6574C8.62655 55.6574 6.75872 56.0005 5.28877 56C3.52653 55.9994 2.33616 55.5049 5.62162 53.3333C5.62162 53.3333 11.9852 43.7588 119.439 51.6183C119.69 51.6363 119.947 51.6556 120.202 51.6757C120.24 51.6816 125.714 52.6516 127.13 53.3197C127.254 53.402 127.367 53.4869 127.46 53.5676Z" fill="#004E7F"/>
<path d="M84.8904 44.5265C82.9503 44.5265 81.4949 44.1668 80.5247 43.445C79.699 42.8444 79.2864 42.0544 79.2864 41.0728V30.1471C79.2864 29.0055 79.7706 28.1301 80.7413 27.5179C81.7125 26.91 83.0219 26.6037 84.6733 26.6037C86.2016 26.6037 87.3461 26.7534 88.1101 27.0541C89.2657 27.5151 89.8443 28.3853 89.8443 29.6668V32.6986H86.8103V29.7561C86.8103 28.9762 86.1752 28.5849 84.9065 28.5849C83.5336 28.5849 82.8476 28.9947 82.8476 29.8173V41.0728C82.8476 41.5343 83.0535 41.9148 83.4656 42.2144C83.88 42.5149 84.3746 42.6643 84.9526 42.6643C85.4682 42.6643 85.9174 42.4943 86.2978 42.1537C86.6806 41.8137 86.873 41.4543 86.873 41.0728V37.6395H84.7981V35.3576H89.9988V41.0728C89.9988 43.3758 88.2955 44.5265 84.8904 44.5265Z" fill="#004E7F"/>
<path fill-rule="evenodd" clip-rule="evenodd" d="M8.67743 44.8035C6.67197 44.8035 5.27933 44.546 4.49769 44.0284C3.71708 43.5119 3.32626 42.6725 3.32626 41.5111V21.4567H0L25.8733 0H26.8373L53.0368 21.4567H49.96V41.5111C49.96 42.6725 49.5959 43.4995 48.8664 43.9901C48.0332 44.5328 46.6146 44.8035 44.6099 44.8035C40.7289 44.8035 38.7904 43.6155 38.7904 41.2387V30.0434C38.7904 27.977 40.1306 26.9442 42.813 26.9442C43.1252 26.9442 43.5557 26.963 44.1021 27.0024C44.6486 27.0402 45.0002 27.0602 45.1563 27.0602C45.5472 27.0602 45.9507 27.2151 46.3672 27.5248L46.3651 19.6192L26.2882 4.089L6.95828 19.6624V27.5248C7.34936 27.1901 7.73966 27.0217 8.13049 27.0217C8.31228 27.0217 8.68988 27.0088 9.26353 26.9831C9.83537 26.9576 10.2913 26.9442 10.63 26.9442C13.2075 26.9442 14.4964 27.977 14.4964 30.0434V41.2387C14.4964 43.6155 12.5569 44.8035 8.67743 44.8035ZM44.4922 42.5959C45.5077 42.5959 46.0155 42.273 46.0155 41.6266V30.0827C46.0155 29.5662 45.5337 29.3074 44.5705 29.3074C43.3996 29.3074 42.813 29.6043 42.813 30.198V41.6266C42.813 42.273 43.3729 42.5959 44.4922 42.5959ZM8.75549 29.2683C7.76586 29.2683 7.2713 29.5276 7.2713 30.0457V41.6238C7.2713 42.2712 7.79179 42.5959 8.83303 42.5959C9.92692 42.5959 10.4739 42.2712 10.4739 41.6238V30.1622C10.4739 29.5665 9.90046 29.2683 8.75549 29.2683Z" fill="#004E7F"/>
<path fill-rule="evenodd" clip-rule="evenodd" d="M19.0279 34.7699C20.3559 34.1494 21.7875 33.4654 23.3243 32.7166C23.7146 32.5618 23.9096 32.3166 23.9096 31.9809V29.928C23.9096 29.1269 23.3959 28.7264 22.3674 28.7264C21.919 28.7264 21.5497 28.8555 21.2592 29.1136C20.969 29.3723 20.8243 29.6558 20.8243 29.9653V32.3676H17.3095V29.9653C17.3095 28.9847 17.6863 28.1973 18.442 27.6023C19.3266 26.9055 20.6166 26.5564 22.3085 26.5564C24.1573 26.5564 25.4981 26.9314 26.3316 27.6795C27.2691 28.5067 27.7377 29.9403 27.7377 31.9809V44.4545H20.2779C19.3401 44.4545 18.6371 44.2484 18.1687 43.835C17.387 43.086 16.9967 41.6267 16.9967 39.4577C16.9967 37.9076 17.1334 36.8362 17.407 36.2415C17.6801 35.6481 18.2203 35.1573 19.0279 34.7699ZM22.128 41.9752H23.9096V34.9731L21.9924 35.8474C21.3702 36.1317 21.059 36.6364 21.059 37.3605V41.1223C21.059 41.6913 21.4151 41.9752 22.128 41.9752Z" fill="#004E7F"/>
<path d="M35.5099 29.3074V44.4544H31.5653V29.3074H29.8856V27.0988H31.5653V24.2327L35.5099 22.0246V27.0988H36.9165V29.3074H35.5099Z" fill="#004E7F"/>
<path fill-rule="evenodd" clip-rule="evenodd" d="M58.4361 44.8035C54.5302 44.8035 52.5777 43.6156 52.5777 41.2387V30.3531C52.5777 27.9508 54.5302 26.7503 58.4361 26.7503C60.5183 26.7503 61.99 27.0602 62.8492 27.6797C63.6042 28.2481 63.982 29.1389 63.982 30.3531V41.2387C63.982 42.4541 63.6042 43.3311 62.8492 43.8738C61.99 44.4937 60.5183 44.8035 58.4361 44.8035ZM58.2797 28.9586C57.1861 28.9586 56.6389 29.282 56.6389 29.9279V41.6266C56.6389 42.273 57.1861 42.5959 58.2797 42.5959C59.3985 42.5959 59.9589 42.273 59.9589 41.6266V29.9279C59.9589 29.282 59.3985 28.9586 58.2797 28.9586Z" fill="#004E7F"/>
<path d="M72.3905 29.152H70.2691V44.4543H66.4426V27.099H70.2691V27.3316C70.7844 26.9964 71.557 26.8282 72.5863 26.8282C73.8723 26.8282 74.8132 26.9442 75.4043 27.1759C76.4071 27.5636 76.9097 28.3518 76.9097 29.5397V44.4543H73.3161V30.3175C73.3161 29.5407 73.0077 29.152 72.3905 29.152Z" fill="#004E7F"/>
<path d="M92.1987 33.8786C92.589 35.7379 94.2423 36.6681 97.159 36.6681H97.5099C98.3172 36.6681 98.7203 37.0789 98.7203 37.8997V41.4405C98.7203 42.2362 98.213 42.6344 97.1977 42.6344C96.7542 42.6344 96.3896 42.505 96.1043 42.2464C95.8175 41.9887 95.6738 41.7037 95.6738 41.394V38.9917H92.1593V41.394C92.1593 42.3756 92.5371 43.1763 93.2915 43.796C94.1769 44.4679 95.4658 44.8031 97.159 44.8031C99.0076 44.8031 100.348 44.4425 101.182 43.7183C102.119 42.8921 102.588 41.4585 102.588 39.4184V37.7526C102.588 36.8232 102.197 36.0615 101.416 35.4668C100.531 34.7949 99.2537 34.4597 97.5885 34.4597H97.1977C96.4171 34.4597 96.0263 34.0494 96.0263 33.2289V30.2671C96.0263 29.4722 96.52 29.0743 97.5099 29.0743C97.9783 29.0743 98.3562 29.2044 98.643 29.4622C98.929 29.7207 99.0722 30.0049 99.0722 30.3141V32.7164H102.588V30.3141C102.588 29.3328 102.21 28.5454 101.455 27.9507C100.57 27.2541 99.2804 26.9053 97.5885 26.9053C95.8696 26.9053 94.5934 27.2147 93.7602 27.8349C92.8232 28.5325 92.2895 29.7333 92.1593 31.438C92.1331 31.6708 92.1331 32.4842 92.1593 33.8786H92.1987Z" fill="#004E7F"/>
<path fill-rule="evenodd" clip-rule="evenodd" d="M111.108 32.7169C109.57 33.4657 108.139 34.1497 106.811 34.7701C106.004 35.1575 105.463 35.6483 105.191 36.2418C104.917 36.8365 104.78 37.9079 104.78 39.4579C104.78 41.6269 105.171 43.0862 105.951 43.8353C106.42 44.2487 107.123 44.4547 108.061 44.4547H115.521V31.9812C115.521 29.9406 115.052 28.507 114.115 27.6797C113.281 26.9317 111.94 26.5566 110.092 26.5566C108.4 26.5566 107.11 26.9057 106.225 27.6026C105.469 28.1975 105.093 28.9849 105.093 29.9655V32.3678H108.608V29.9655C108.608 29.6561 108.752 29.3726 109.043 29.1138C109.333 28.8558 109.702 28.7267 110.15 28.7267C111.179 28.7267 111.693 29.1272 111.693 29.9282V31.9812C111.693 32.3169 111.498 32.562 111.108 32.7169ZM111.693 41.9755H109.912C109.198 41.9755 108.842 41.6915 108.842 41.1225V37.3607C108.842 36.6366 109.153 36.1319 109.776 35.8477L111.693 34.9733V41.9755Z" fill="#004E7F"/>
<path d="M126.492 27.1762C125.9 26.9444 124.961 26.8281 123.674 26.8281C122.644 26.8281 121.873 26.9964 121.358 27.3318V27.099H117.53V44.4546H121.358V29.1522H123.479C124.096 29.1522 124.405 29.5409 124.405 30.3178V44.4546H127.998V29.5399C127.998 28.352 127.496 27.5638 126.492 27.1762Z" fill="#004E7F"/>
</svg>
