<svg width="194" height="100" viewBox="0 0 194 100" fill="none" xmlns="http://www.w3.org/2000/svg">
<g clip-path="url(#clip0)">
<path fill-rule="evenodd" clip-rule="evenodd" d="M7.5998 66.4C8.7998 67.2 10.8998 67.6 13.7998 67.6C19.5998 67.6 22.4998 65.8 22.4998 62.2V45.3C22.4998 42.2 20.5998 40.6 16.6998 40.6C16.1998 40.6 15.4998 40.6 14.6998 40.7C14.1292 40.7 13.7194 40.7402 13.4194 40.7696C13.2462 40.7866 13.1096 40.8 12.9998 40.8C12.3998 40.8 11.7998 41.1 11.1998 41.6V29.7L40.0998 6.2L70.0998 29.6V41.5C69.4998 41 68.8998 40.8 68.2998 40.8C68.0998 40.8 67.4998 40.8 66.6998 40.7C65.8998 40.6 65.1998 40.6 64.7998 40.6C60.7998 40.6 58.7998 42.2 58.7998 45.3V62.2C58.7998 65.8 61.6998 67.6 67.4998 67.6C70.4998 67.6 72.5998 67.2 73.8998 66.4C74.9998 65.7 75.4998 64.4 75.4998 62.7V32.4H80.0998L40.9998 0H39.5998L0.799805 32.4H5.7998V62.7C5.7998 64.4 6.3998 65.6 7.5998 66.4ZM11.6998 45.3C11.6998 44.5 12.3998 44.1 13.8998 44.1C15.5998 44.1 16.4998 44.5 16.4998 45.4V62.7C16.4998 63.7 15.6998 64.2 13.9998 64.2C12.3998 64.2 11.6998 63.7 11.6998 62.7V45.3ZM69.5998 62.8C69.5998 63.8 68.7998 64.3 67.2998 64.3C65.5998 64.3 64.7998 63.8 64.7998 62.8V45.6C64.7998 44.7 65.6998 44.3 67.3998 44.3C68.7998 44.3 69.5998 44.7 69.5998 45.5V62.8Z" fill="white"/>
<path d="M40.6999 21.2H44.3999V20.1C43.0999 17.8 41.7999 16.9 40.6999 16.7V21.2Z" fill="white"/>
<path fill-rule="evenodd" clip-rule="evenodd" d="M97.6998 94.3C97.6998 96.6 96.0998 97.5 94.6998 97.5C93.0998 97.5 91.7998 96.3 91.7998 94.4C91.7998 92.4 93.1998 91.2 94.7998 91.2C96.4998 91.1 97.6998 92.4 97.6998 94.3ZM92.8998 94.3C92.8998 95.6 93.6998 96.6 94.6998 96.6C95.7998 96.6 96.5998 95.6 96.5998 94.2C96.5998 93.2 96.0998 91.9 94.7998 91.9C93.4998 92 92.8998 93.2 92.8998 94.3Z" fill="white"/>
<path d="M95.1998 88.6L96.2998 90.4H95.4998L94.8998 89.2L94.2998 90.4H93.4998L94.5998 88.6H95.1998Z" fill="white"/>
<path d="M97.7998 87.6L96.4998 89.3H95.8998L96.7998 87.6H97.7998Z" fill="white"/>
<path d="M26.9002 88.4V92.2C27.1002 91.9 27.4002 91.6 27.7002 91.4C28.0002 91.2 28.4002 91.1 28.8002 91.1C29.6002 91.1 30.9002 91.6 30.9002 93.7V97.3H29.8002V93.8C29.8002 92.8 29.4002 92 28.4002 92C27.7002 92 27.1002 92.5 26.9002 93.1C26.8002 93.3 26.8002 93.4 26.8002 93.6V97.3H25.7002V88.4H26.9002Z" fill="white"/>
<path fill-rule="evenodd" clip-rule="evenodd" d="M13.1001 94.5C13.1001 96 14.1001 96.6 15.2001 96.6C16.0001 96.6 16.5001 96.5 16.9001 96.3L17.1001 97.1C16.7001 97.3 16.0001 97.5 15.1001 97.5C13.2001 97.5 12.1001 96.2 12.1001 94.4C12.1001 92.6 13.2001 91.1 15.0001 91.1C17.0001 91.1 17.5001 92.8 17.5001 94V94.5H13.1001ZM16.4001 93.7C16.4001 93 16.1001 91.9 14.9001 91.9C13.8001 91.9 13.3001 92.9 13.2001 93.7H16.4001Z" fill="white"/>
<path d="M15.2001 88.6L16.4001 90.4H15.6001L14.9001 89.2L14.2001 90.4H13.4001L14.6001 88.6H15.2001Z" fill="white"/>
<path d="M5.7002 88.8H6.8002V93C6.92841 92.7435 7.09773 92.5282 7.25545 92.3276C7.34375 92.2153 7.42841 92.1077 7.5002 92L10.1002 88.8H11.5002L8.4002 92.4L11.7002 97.3H10.4002L7.6002 93.1L6.8002 94V97.2H5.7002V88.8Z" fill="white"/>
<path d="M18.7002 91.2C18.8002 91.8 18.8002 92.3 18.8002 92.9V97.3H19.9002V93.6C19.9002 93.4 19.9002 93.2 20.0002 93.1C20.2002 92.5 20.8002 92 21.5002 92C22.5002 92 22.9002 92.8 22.9002 93.8V97.3H24.0002V93.7C24.0002 91.6 22.6002 91.1 21.8002 91.1C20.8002 91.1 20.1002 91.6 19.8002 92.2L19.7002 91.2H18.7002Z" fill="white"/>
<path d="M36.7998 91.3V89.8L35.6998 90.2V91.3H34.7998V92.1H35.6998V95.4C35.6998 96.1 35.7998 96.7 36.0998 97C36.3998 97.3 36.7998 97.5 37.2998 97.5C37.6998 97.5 38.0998 97.4 38.2998 97.3L38.1998 96.5C38.0998 96.6 37.8998 96.6 37.5998 96.6C36.9998 96.6 36.7998 96.2 36.7998 95.4V92.1H38.3998V91.3H36.7998Z" fill="white"/>
<path d="M40.8001 88.4V92.2C41.0001 91.9 41.3001 91.6 41.6001 91.4C41.9001 91.2 42.3001 91.1 42.7001 91.1C43.5001 91.1 44.8001 91.6 44.8001 93.7V97.3H43.7001V93.8C43.7001 92.8 43.3001 92 42.3001 92C41.6001 92 41.0001 92.5 40.8001 93.1C40.7001 93.3 40.7001 93.4 40.7001 93.6V97.3H39.6001V88.4H40.8001Z" fill="white"/>
<path fill-rule="evenodd" clip-rule="evenodd" d="M49.1998 97.5C50.5998 97.5 52.1998 96.6 52.1998 94.3C52.1998 92.4 50.9998 91.1 49.2998 91.2C47.6998 91.2 46.2998 92.4 46.2998 94.4C46.2998 96.3 47.5998 97.5 49.1998 97.5ZM49.1998 96.6C48.1998 96.6 47.3998 95.6 47.3998 94.3C47.3998 93.2 47.9998 92 49.2998 91.9C50.5998 91.9 51.0998 93.2 51.0998 94.2C51.0998 95.6 50.2998 96.6 49.1998 96.6Z" fill="white"/>
<path d="M50.7998 90.4L49.5998 88.6H48.9998L47.7998 90.4H48.5998L49.2998 89.2L49.9998 90.4H50.7998Z" fill="white"/>
<path d="M53.6 92.9C53.6 92.3 53.6 91.8 53.5 91.2H54.5L54.6 92.2C54.9 91.6 55.6 91.1 56.6 91.1C57.4 91.1 58.8 91.6 58.8 93.7V97.3H57.7V93.8C57.7 92.8 57.3 92 56.3 92C55.6 92 55 92.5 54.8 93.1C54.7 93.2 54.7 93.4 54.7 93.6V97.3H53.6V92.9Z" fill="white"/>
<path fill-rule="evenodd" clip-rule="evenodd" d="M64.9999 99.3C65.5999 98.8 65.8999 97.9 65.8999 96.5H65.9999V92.9C65.9999 92.4314 66.0342 92.0657 66.0626 91.7628C66.0827 91.5487 66.0999 91.3656 66.0999 91.2H65.0999V92.1C64.7999 91.6 64.2999 91.1 63.1999 91.1C61.7999 91.1 60.3999 92.2 60.3999 94.3C60.3999 96 61.4999 97.3 62.9999 97.3C63.8999 97.3 64.5999 96.9 64.8999 96.3V97C64.8999 98.5 63.9999 99.1 62.8999 99.1C62.0999 99.1 61.4999 98.9 61.0999 98.6L60.7999 99.5C61.2999 99.8 62.0999 100 62.7999 100C63.4999 100 64.3999 99.8 64.9999 99.3ZM64.5999 93.2C64.6999 93.3 64.6999 93.5 64.6999 93.7V94.8C64.6999 95 64.6999 95.2 64.5999 95.4C64.3999 96.1 63.7999 96.5 63.0999 96.5C61.8999 96.5 61.2999 95.5 61.2999 94.3C61.2999 92.9 61.9999 92 63.0999 92C63.9999 92 64.4999 92.5 64.5999 93.2Z" fill="white"/>
<path d="M71.7002 89.8V91.3H73.3002V92.1H71.7002V95.4C71.7002 96.2 71.9002 96.6 72.5002 96.6C72.8002 96.6 73.0002 96.6 73.1002 96.5L73.2002 97.3C73.0002 97.4 72.6002 97.5 72.2002 97.5C71.7002 97.5 71.3002 97.3 71.0002 97C70.7002 96.7 70.6002 96.1 70.6002 95.4V92.1H69.7002V91.3H70.6002V90.2L71.7002 89.8Z" fill="white"/>
<path d="M75.0999 90.2C75.4999 90.2 75.7999 89.9 75.7999 89.5C75.7999 89.1 75.4999 88.8 75.0999 88.8C74.6999 88.8 74.3999 89.1 74.3999 89.5C74.3999 89.9 74.6999 90.2 75.0999 90.2Z" fill="white"/>
<path d="M74.4999 91.3V97.4H75.5999V91.3H74.4999Z" fill="white"/>
<path d="M77.4999 92.9C77.4999 92.3 77.4999 91.8 77.3999 91.2H78.3999L78.4999 92.2C78.7999 91.6 79.4999 91.1 80.4999 91.1C81.2999 91.1 82.6999 91.6 82.6999 93.7V97.3H81.5999V93.8C81.5999 92.8 81.1999 92 80.1999 92C79.4999 92 78.8999 92.5 78.6999 93.1C78.5999 93.2 78.5999 93.4 78.5999 93.6V97.3H77.4999V92.9Z" fill="white"/>
<path d="M88.5002 96.6C87.9002 96.6 87.3002 96.4 87.0002 96.2L86.7002 96.9C87.1002 97.1 87.7002 97.3 88.4002 97.3C89.9002 97.3 90.7002 96.6 90.7002 95.5C90.7002 94.6 90.1002 94.1 89.1002 93.7C88.4002 93.4 88.0002 93.2 88.0002 92.7C88.0002 92.3 88.3002 91.9 89.0002 91.9C89.6002 91.9 90.1002 92.1 90.3002 92.3L90.6002 91.5C90.3002 91.3 89.7002 91.1 89.1002 91.1C87.8002 91.1 87.0002 91.9 87.0002 92.9C87.0002 93.6 87.5002 94.2 88.6002 94.6C89.4002 94.9 89.7002 95.2 89.7002 95.7C89.7002 96.2 89.3002 96.6 88.5002 96.6Z" fill="white"/>
<path d="M103.8 90.2533L102.4 91L102.2 90.2L104 89.2H104.9V97.4H103.8V90.2533Z" fill="white"/>
<path d="M112.6 94.6C112.652 94.755 112.704 94.9034 112.753 95.0468C112.897 95.4583 113.026 95.8292 113.1 96.2C113.174 95.8292 113.303 95.4585 113.447 95.0469C113.497 94.9035 113.549 94.755 113.6 94.6L114.8 91.2H116L113.6 97.3H112.5L110.2 91.2H111.4L112.6 94.6Z" fill="white"/>
<path fill-rule="evenodd" clip-rule="evenodd" d="M119.6 96.6C118.5 96.6 117.5 96 117.5 94.5H121.8C121.9 94.4 121.9 94.2 121.9 94C121.9 92.8 121.4 91.1 119.4 91.1C117.6 91.1 116.5 92.6 116.5 94.4C116.5 96.2 117.6 97.5 119.5 97.5C120.4 97.5 121.1 97.3 121.5 97.1L121.3 96.3C120.9 96.5 120.4 96.6 119.6 96.6ZM119.3 91.9C120.5 91.9 120.8 93 120.8 93.7H117.6C117.7 92.9 118.2 91.9 119.3 91.9Z" fill="white"/>
<path d="M120.8 90.4L119.7 88.6H119.1L118 90.4H118.8L119.4 89.2L120 90.4H120.8Z" fill="white"/>
<path d="M121.6 89.3L120.8 87.6H119.8L121 89.3H121.6Z" fill="white"/>
<path fill-rule="evenodd" clip-rule="evenodd" d="M125.9 88.4H127V92.2C127.4 91.5 128.1 91.1 129.1 91.1C130.6 91.1 131.7 92.4 131.7 94.2C131.7 96.4 130.3 97.5 128.9 97.5C128 97.5 127.3 97.2 126.8 96.4L126.7 97.4H125.8C125.8 97.2202 125.82 97 125.842 96.7575C125.869 96.4606 125.9 96.1303 125.9 95.8V88.4ZM127 94.9C127 95 127 95.2 127.1 95.3C127.3 96.1 128 96.6 128.8 96.6C130 96.6 130.7 95.7 130.7 94.3C130.7 93.1 130.1 92 128.9 92C128.2 92 127.4 92.5 127.2 93.4C127.2 93.4414 127.183 93.5 127.163 93.5686C127.134 93.6657 127.1 93.7828 127.1 93.9V94.9H127Z" fill="white"/>
<path fill-rule="evenodd" clip-rule="evenodd" d="M137.5 97.4C137.4 96.9 137.4 96.4 137.4 95.9H137.3V93.7C137.3 92.5 136.9 91.2 135 91.2C134.2 91.2 133.5 91.4 133 91.7L133.3 92.4C133.7 92.1 134.3 91.9 134.9 91.9C136.2 91.9 136.3 92.8 136.3 93.3V93.4C133.9 93.4 132.6 94.2 132.6 95.7C132.6 96.6 133.3 97.5 134.5 97.5C135.4 97.5 136.1 97.1 136.4 96.6L136.5 97.4H137.5ZM133.7 95.6C133.7 94.4 135.1 94.2 136.3 94.2V95.3C136.3 95.35 136.275 95.4249 136.25 95.4998C136.225 95.5747 136.2 95.6501 136.2 95.7C136 96.2 135.5 96.7 134.7 96.7C134.2 96.7 133.7 96.3 133.7 95.6Z" fill="white"/>
<path d="M136.6 90.4L135.5 88.6H134.9L133.8 90.4H134.6L135.2 89.2L135.8 90.4H136.6Z" fill="white"/>
<path d="M136.9 89.3L138.2 87.6H137.2L136.3 89.3H136.9Z" fill="white"/>
<path d="M140.5 89.8V91.3H142.1V92.1H140.5V95.4C140.5 96.2 140.7 96.6 141.3 96.6C141.6 96.6 141.8 96.6 141.9 96.5L142 97.3C141.8 97.4 141.4 97.5 141 97.5C140.5 97.5 140.1 97.3 139.8 97C139.5 96.7 139.4 96.1 139.4 95.4V92.1H138.5V91.3H139.4V90.2L140.5 89.8Z" fill="white"/>
<path fill-rule="evenodd" clip-rule="evenodd" d="M151.3 95.8V90.3H152.2V89.6H151.2V88.3H150.1V89.6H147.6V90.3H150.1V92C149.9 91.5 149.2 91.1 148.3 91.1C146.9 91.1 145.6 92.4 145.6 94.4C145.6 96.2 146.7 97.5 148.2 97.5C149.2 97.5 150 97 150.3 96.3L150.4 97.4H151.4C151.3 97 151.3 96.3 151.3 95.8ZM150.1 93.2C150.2 93.4 150.2 93.6 150.2 93.7V94.7C150.2 94.8 150.175 94.875 150.15 94.95C150.125 95.025 150.1 95.1 150.1 95.2C149.9 96 149.2 96.5 148.5 96.5C147.3 96.5 146.7 95.4 146.7 94.2C146.7 92.9 147.4 91.9 148.5 91.9C149.3 91.9 149.9 92.5 150.1 93.2Z" fill="white"/>
<path fill-rule="evenodd" clip-rule="evenodd" d="M158.6 94.3C158.6 96.6 157 97.5 155.6 97.5C154 97.5 152.7 96.3 152.7 94.4C152.7 92.4 154.1 91.2 155.7 91.2C157.5 91.1 158.6 92.4 158.6 94.3ZM153.8 94.3C153.8 95.6 154.6 96.6 155.6 96.6C156.7 96.6 157.5 95.6 157.5 94.2C157.5 93.2 157 91.9 155.7 91.9C154.4 91.9 153.8 93.2 153.8 94.3Z" fill="white"/>
<path d="M156 88.6L157.2 90.4H156.4L155.7 89.2L155 90.4H154.2L155.4 88.6H156Z" fill="white"/>
<path d="M156.3 99C156.3 99.4 156 99.6 155.7 99.6C155.3 99.6 155.1 99.3 155.1 99C155.1 98.6 155.4 98.3 155.7 98.3C156 98.4 156.3 98.7 156.3 99Z" fill="white"/>
<path d="M159.9 91.2C160 91.8 160 92.3 160 92.9V97.3H161.1V93.6C161.1 93.4 161.1 93.2 161.2 93.1C161.4 92.5 162 92 162.7 92C163.7 92 164.1 92.8 164.1 93.8V97.3H165.2V93.7C165.2 91.6 163.8 91.1 163 91.1C162 91.1 161.3 91.6 161 92.2L160.9 91.2H159.9Z" fill="white"/>
<path fill-rule="evenodd" clip-rule="evenodd" d="M172.3 96.5C172.3 97.9 172 98.8 171.4 99.3C170.8 99.8 169.9 100 169.2 100C168.5 100 167.7 99.8 167.2 99.5L167.5 98.6C167.9 98.9 168.5 99.1 169.3 99.1C170.4 99.1 171.3 98.5 171.3 97V96.3C171 96.9 170.3 97.3 169.4 97.3C167.9 97.3 166.8 96 166.8 94.3C166.8 92.2 168.2 91.1 169.6 91.1C170.7 91.1 171.2 91.6 171.5 92.1V91.2H172.5C172.5 91.3656 172.483 91.5482 172.463 91.7622C172.434 92.0652 172.4 92.4314 172.4 92.9V96.5H172.3ZM171.2 93.7C171.2 93.5 171.2 93.3 171.1 93.2C170.9 92.5 170.4 92 169.5 92C168.4 92 167.7 92.9 167.7 94.3C167.7 95.5 168.3 96.5 169.5 96.5C170.2 96.5 170.8 96.1 171 95.4C171.1 95.2 171.1 95 171.1 94.8V93.7H171.2Z" fill="white"/>
<path d="M178.1 96.6C177.5 96.6 176.9 96.4 176.6 96.2L176.3 96.9C176.7 97.1 177.3 97.3 178 97.3C179.5 97.3 180.3 96.6 180.3 95.5C180.3 94.6 179.7 94.1 178.7 93.7C178 93.4 177.6 93.2 177.6 92.7C177.6 92.3 177.9 91.9 178.6 91.9C179.2 91.9 179.7 92.1 179.9 92.3L180.2 91.5C179.9 91.3 179.3 91.1 178.7 91.1C177.4 91.1 176.6 91.9 176.6 92.9C176.6 93.6 177.1 94.2 178.2 94.6C179 94.9 179.3 95.2 179.3 95.7C179.3 96.2 178.9 96.6 178.1 96.6Z" fill="white"/>
<path fill-rule="evenodd" clip-rule="evenodd" d="M186.1 95.9002C186.1 96.4002 186.1 96.9001 186.2 97.4H185.2L185.1 96.6C184.8 97.1 184.1 97.5 183.2 97.5C182 97.5 181.3 96.6 181.3 95.7C181.3 94.2 182.6 93.4 185 93.4V93.3C185 92.8 184.9 91.9 183.6 91.9C183 91.9 182.4 92.1 182 92.4L181.7 91.7C182.2 91.4 183 91.2 183.7 91.2C185.6 91.2 186 92.5 186 93.7V95.9L186.1 95.9002ZM185 94.2C183.8 94.2 182.4 94.4 182.4 95.6C182.4 96.3 182.9 96.7 183.4 96.7C184.2 96.7 184.7 96.2 184.9 95.7C184.9 95.6501 184.925 95.5751 184.95 95.5002C184.975 95.4252 185 95.35 185 95.3V94.2Z" fill="white"/>
<path d="M183.5 90.5C183.593 90.2197 183.752 90.0485 183.895 89.8946C184.058 89.7192 184.2 89.5664 184.2 89.3C184.2 89 184 88.9 183.8 88.9C183.5 88.9 183.3 89.1 183.2 89.3L182.8 89C183 88.5 183.4 88.2 184 88.2C184.6 88.2 185.1 88.6 185.1 89.1C185.1 89.5194 184.849 89.7593 184.583 90.0132C184.405 90.1832 184.22 90.3595 184.1 90.6L183.5 90.5Z" fill="white"/>
<path d="M187.9 92.9V97.3H189V93.6C189 93.4 189 93.2 189.1 93.1C189.3 92.5 189.9 92 190.6 92C191.6 92 192 92.8 192 93.8V97.3H193.1V93.7C193.1 91.6 191.7 91.1 190.9 91.1C189.9 91.1 189.2 91.6 188.9 92.2L188.8 91.2H187.8C187.9 91.7999 187.9 92.3001 187.9 92.9Z" fill="white"/>
<path d="M39.7999 16.7V21.2H35.9999V20.1C35.9999 20.1 37.4999 17.1 39.7999 16.7Z" fill="white"/>
<path d="M40.6999 22.1H44.3999V26.6H40.6999V22.1Z" fill="white"/>
<path d="M39.6999 22.1H35.8999V26.6H39.6999V22.1Z" fill="white"/>
<path d="M119.4 32.5C119.8 32.1 120 31.7 120 31.1C120 30.5 119.8 30 119.4 29.7C119.1 29.3 118.6 29.1 118 29.1C117.5 29.1 117 29.3 116.6 29.7C116.2 30.1 116 30.5 116 31.1C116 31.6 116.2 32.1 116.6 32.5C116.9 32.9 117.4 33.1 118 33.1C118.5 33.1 119 32.9 119.4 32.5Z" fill="white"/>
<path d="M131.8 30C131.8 30.9 131.4 31.6 130.7 32.2C129.9 32.8 128.7 33.1 127.2 33.1C125.5 33.1 124.3 32.8 123.5 32.1C122.6 31.4 122.2 30.1 122.2 28.2V21.8C122.2 20 122.6 18.6 123.5 17.9C124.3 17.2 125.5 16.9 127.2 16.9C128.7 16.9 129.9 17.2 130.7 17.8C131.4 18.3 131.8 19.1 131.8 19.9V22.1H128.6V20C128.6 19.7 128.5 19.5 128.2 19.2C127.9 19 127.6 18.9 127.2 18.9C126.3 18.9 125.9 19.3 125.9 20V30.1C125.9 30.8 126.3 31.2 127.2 31.2C127.6 31.2 128 31.1 128.2 30.9C128.4 30.7 128.6 30.4 128.6 30.1V27.9H131.8V30Z" fill="white"/>
<path d="M158.4 33.1H161.6V19.4C161.6 18.3 161.1 17.6 160.2 17.2C159.6 17 158.8 16.9 157.6 16.9C156.7 16.9 156 17.1 155.5 17.4L155 17.8C154.5 17.2 153.3 16.9 151.6 16.9C150.7 16.9 150 17.1 149.5 17.4V17.2H146V33.1H149.5V19.1H151.4C151.9 19.1 152.2 19.5 152.2 20.2V33.1H155.5V19.1H157.5C158.1 19.1 158.4 19.5 158.4 20.2V33.1Z" fill="white"/>
<path d="M168.3 31.1C168.3 31.7 168.1 32.1 167.7 32.5C167.3 32.9 166.8 33.1 166.3 33.1C165.7 33.1 165.2 32.9 164.9 32.5C164.5 32.1 164.3 31.6 164.3 31.1C164.3 30.5 164.5 30.1 164.9 29.7C165.3 29.3 165.8 29.1 166.3 29.1C166.9 29.1 167.4 29.3 167.7 29.7C168.1 30 168.3 30.5 168.3 31.1Z" fill="white"/>
<path d="M178.5 17.3L174.8 28.3L170.9 17.3H167.7L173 33.2H176.5L181.8 17.3H178.5Z" fill="white"/>
<path d="M189.9 33.1V20.2C189.9 19.5 189.6 19.1 189.1 19.1H187.2V33.1H183.7V17.2H187.2V17.4C187.7 17.1 188.4 16.9 189.3 16.9C190.5 16.9 191.3 17 191.9 17.2C192.8 17.6 193.3 18.3 193.3 19.4V33.1H189.9Z" fill="white"/>
<path fill-rule="evenodd" clip-rule="evenodd" d="M142.3 32.4C143 31.9 143.3 31.1 143.3 30V20.2C143.3 19.1 143 18.3 142.3 17.8C141.6 17.3 140.3 17 138.4 17C134.9 17 133.2 18 133.2 20.2V30C133.2 32.1 134.9 33.2 138.4 33.2C140.2 33.2 141.5 33 142.3 32.4ZM139.8 19.8V30.3C139.8 30.9 139.3 31.2 138.3 31.2C137.3 31.2 136.8 30.9 136.8 30.3V19.8C136.8 19.2 137.3 18.9 138.3 18.9C139.3 18.9 139.8 19.2 139.8 19.8Z" fill="white"/>
<path d="M191.9 79.9C191.8 79.9 191.8 79.8 191.8 79.8C191.759 79.7586 191.7 79.7172 191.631 79.6686C191.534 79.6 191.417 79.5172 191.3 79.4C189.2 78.4 181 76.9 180.9 76.9C180.686 76.9 180.471 76.8713 180.272 76.8446C180.1 76.8215 179.939 76.8 179.8 76.8C19.1001 65 9.6001 79.4 9.6001 79.4C0.600098 85.4 14.1001 82.9 14.1001 82.9C112.3 68.7 188.6 81.2 188.6 81.2C192.2 81.2 192.6 80.6 191.9 79.9Z" fill="white"/>
<path d="M127.7 67.1C124.8 67.1 122.7 66.6 121.2 65.5C120 64.6 119.4 63.4 119.2 62V45.5C119.2 43.7 119.9 42.4 121.4 41.5C122.9 40.6 124.8 40.1 127.3 40.1C129.5 40.1 131.3 40.3 132.4 40.8C134.1 41.5 135 42.8 135 44.7V49.3H130.5V44.9C130.5 43.7 129.6 43.1 127.7 43.1C125.6 43.1 124.6 43.8 124.6 45V62C124.6 62.7 124.9 63.2 125.5 63.7C126.1 64.2 126.8 64.4 127.7 64.4C128.5 64.4 129.1 64.1 129.7 63.6C130.3 63.1 130.6 62.6 130.6 62V56.7H127.5V53.3H135.3V61.9C135.3 65.4 132.8 67.1 127.7 67.1Z" fill="white"/>
<path fill-rule="evenodd" clip-rule="evenodd" d="M33.0491 50.6975C33.9051 50.2734 34.7871 49.8365 35.6998 49.4C36.2998 49.1 36.5998 48.8 36.6998 48.3V45.2C36.6998 44 35.8998 43.4 34.3998 43.4C33.6998 43.4 33.0998 43.6 32.6998 44C32.1998 44.4 31.9998 44.8 31.9998 45.3V48.9H26.8998V45.3C26.8998 43.8 27.4998 42.6 28.5998 41.7C29.8998 40.6 31.8998 40.1 34.3998 40.1C37.0998 40.1 39.1998 40.7 40.3998 41.8C41.7998 43.1 42.4998 45.2 42.4998 48.3V67H31.2998C29.8998 67 28.7998 66.7 28.0998 66.1C26.8998 65 26.2998 62.8 26.2998 59.5C26.2998 57.2 26.4998 55.6 26.8998 54.7C27.2998 53.8 28.0998 53.1 29.2998 52.5C30.5057 51.9573 31.7485 51.3417 33.0491 50.6975ZM33.8998 63.3H36.5998V52.7L33.6998 54C32.7998 54.4 32.2998 55.2 32.2998 56.3V62C32.2998 62.9 32.7998 63.3 33.8998 63.3Z" fill="white"/>
<path d="M53.9 67.1V44.2H56V40.9H53.9V33.2L48 36.6V40.9H45.5V44.2H48V67.1H53.9Z" fill="white"/>
<path fill-rule="evenodd" clip-rule="evenodd" d="M88.1999 67.6C82.2999 67.6 79.3999 65.8 79.3999 62.2V45.8C79.3999 42.2 82.3999 40.4 88.1999 40.4C91.2999 40.4 93.4999 40.9 94.7999 41.8C95.8999 42.6 96.4999 44 96.4999 45.8V62.2C96.4999 64.1 95.8999 65.4 94.7999 66.2C93.4999 67.1 91.2999 67.6 88.1999 67.6ZM87.9999 43.7C86.2999 43.7 85.4999 44.2 85.4999 45.2V62.8C85.4999 63.8 86.3999 64.3 87.9999 64.3C89.6999 64.3 90.4999 63.8 90.4999 62.8V45.2C90.4999 44.2 89.6999 43.7 87.9999 43.7Z" fill="white"/>
<path d="M105.9 44H109.1C110 44 110.5 44.6 110.5 45.8V67.1H115.9V44.6C115.9 42.8 115.1 41.6 113.6 41C112.7 40.7 111.3 40.5 109.4 40.5C107.9 40.5 106.7 40.8 105.9 41.3V40.9H100.2V67.1H105.9V44Z" fill="white"/>
<path d="M146.2 55.3C141.9 55.3 139.4 53.9 138.8 51.1C138.766 50.3841 138.744 49.7728 138.725 49.2621C138.688 48.2748 138.666 47.6637 138.6 47.4C138.8 44.9 139.6 43.1 141 42C142.2 41.1 144.1 40.6 146.7 40.6C149.2 40.6 151.2 41.1 152.5 42.2C153.6 43.1 154.2 44.3 154.2 45.8V49.4H148.9V45.8C148.9 45.3 148.7 44.9 148.3 44.5C147.9 44.1 147.3 43.9 146.6 43.9C145.1 43.9 144.4 44.5 144.4 45.7V50.2C144.4 51.5 145 52.1 146.2 52.1H146.8C149.3 52.1 151.2 52.6 152.5 53.6C153.7 54.5 154.3 55.6 154.3 57V59.4C154.3 62.5 153.6 64.7 152.2 65.9C151 67 149 67.5 146.2 67.5C143.7 67.5 141.7 67 140.4 66C139.3 65.1 138.7 63.9 138.7 62.4V58.8H144V62.4C144 62.9 144.2 63.3 144.6 63.7C145 64.1 145.5 64.3 146.2 64.3C147.7 64.3 148.5 63.7 148.5 62.5V57.2C148.5 55.9 147.9 55.3 146.7 55.3H146.2Z" fill="white"/>
<path fill-rule="evenodd" clip-rule="evenodd" d="M167.2 49.4C166.287 49.8368 165.405 50.2735 164.549 50.6977C163.248 51.342 162.006 51.9573 160.8 52.5C159.6 53.1 158.8 53.8 158.4 54.7C158 55.6 157.8 57.2 157.8 59.5C157.8 62.8 158.4 65 159.6 66.1C160.3 66.7 161.4 67 162.8 67H174V48.3C174 45.2 173.3 43.1 171.9 41.8C170.7 40.7 168.6 40.1 165.9 40.1C163.4 40.1 161.4 40.6 160.1 41.7C159 42.6 158.4 43.8 158.4 45.3V48.9H163.7V45.3C163.7 44.8 163.9 44.4 164.4 44C164.8 43.6 165.4 43.4 166.1 43.4C167.6 43.4 168.4 44 168.4 45.2V48.3C168.1 48.8 167.8 49.1 167.2 49.4ZM168.1 63.3H165.4C164.3 63.3 163.8 62.9 163.8 62V56.3C163.8 55.2 164.3 54.4 165.2 54L168.1 52.7V63.3Z" fill="white"/>
<path d="M186.7 40.5C188.6 40.5 190 40.7 190.9 41C192.4 41.6 193.1 42.8 193.2 44.6V67.1H187.8V45.8C187.8 44.6 187.3 44 186.4 44H183.2V67.1H177.5V40.9H183.2V41.3C184 40.8 185.2 40.5 186.7 40.5Z" fill="white"/>
</g>
<defs>
<clipPath id="clip0">
<rect width="194" height="100" fill="white"/>
</clipPath>
</defs>
</svg>
